HIERARCHY
ROOT hip
{
	OFFSET 0.000000 0.000000 0.000000 
	CHANNELS 6 Xposition Yposition Zposition Xrotation Zrotation Yrotation
	JOINT abdomen
	{
		OFFSET 0.000000 3.402643 0.000000 
		CHANNELS 3 Xrotation Zrotation Yrotation
		JOINT chest
		{
			OFFSET 0.000000 8.438565 -0.680529 
			CHANNELS 3 Xrotation Zrotation Yrotation
			JOINT neck
			{
				OFFSET 0.000000 10.207942 -0.272212 
				CHANNELS 3 Xrotation Zrotation Yrotation
				JOINT head
				{
					OFFSET 0.000000 3.130431 0.000000 
					CHANNELS 3 Xrotation Zrotation Yrotation
					End Site
					{
						OFFSET 0.000000 3.130435 0.000000 
					}
				}
			}
			JOINT lCollar
			{
				OFFSET 3.470700 6.669187 -0.816635 
				CHANNELS 3 Yrotation Zrotation Xrotation
				JOINT lShldr
				{
					OFFSET 3.198488 0.000000 0.000000 
					CHANNELS 3 Zrotation Yrotation Xrotation
					JOINT lForeArm
					{
						OFFSET 10.139888 0.000000 0.000000 
						CHANNELS 3 Yrotation Zrotation Xrotation
						JOINT lHand
						{
							OFFSET 8.370511 0.000000 0.000000 
							CHANNELS 3 Zrotation Yrotation Xrotation
							End Site
							{
								OFFSET 4.083176 0.000000 0.000000 
							}
						}
					}
				}
			}
			JOINT rCollar
			{
				OFFSET -3.470700 6.669187 -0.816635 
				CHANNELS 3 Yrotation Zrotation Xrotation
				JOINT rShldr
				{
					OFFSET -3.198488 0.000000 0.000000 
					CHANNELS 3 Zrotation Yrotation Xrotation
					JOINT rForeArm
					{
						OFFSET -10.139888 0.000000 0.000000 
						CHANNELS 3 Yrotation Zrotation Xrotation
						JOINT rHand
						{
							OFFSET -8.370511 0.000000 0.000000 
							CHANNELS 3 Zrotation Yrotation Xrotation
							End Site
							{
								OFFSET -4.083176 0.000000 0.000000 
							}
						}
					}
				}
			}
		}
	}
	JOINT lThigh
	{
		OFFSET 5.308129 -1.633274 1.361059 
		CHANNELS 3 Xrotation Zrotation Yrotation
		JOINT lShin
		{
			OFFSET -2.041588 -20.007561 0.000000 
			CHANNELS 3 Xrotation Zrotation Yrotation
			JOINT lFoot
			{
				OFFSET 0.000000 -19.190928 -1.224953 
				CHANNELS 3 Xrotation Yrotation Zrotation
				End Site
				{
					OFFSET 0.000000 -2.449906 4.627600 
				}
			}
		}
	}
	JOINT rThigh
	{
		OFFSET -5.308129 -1.633274 1.361059 
		CHANNELS 3 Xrotation Zrotation Yrotation
		JOINT rShin
		{
			OFFSET 2.041588 -20.007561 0.000000 
			CHANNELS 3 Xrotation Zrotation Yrotation
			JOINT rFoot
			{
				OFFSET 0.000000 -19.190928 -1.224953 
				CHANNELS 3 Xrotation Yrotation Zrotation
				End Site
				{
					OFFSET 0.000000 -2.449906 4.627600 
				}
			}
		}
	}
}
MOTION
Frames: 18
Frame Time: 0.033333
-33.200146 50.768326 86.996048 -9.580078 -7.470703 -19.698534 50.599045 -11.925321 6.969075 -29.238281 6.777344 -3.934394 51.063168 8.107644 2.471410 -83.164063 -7.988280 -1.964248 2.000000 -2.000000 0.000000 -97.626953 38.916012 -6.455078 -87.101067 -0.031923 -2.781847 16.607016 28.418674 5.234663 -2.000000 2.000000 0.000000 71.640625 -15.527344 18.486326 106.040009 -0.915599 -2.973555 -2.524323 -41.365906 5.440571 -10.319064 8.630005 1.983380 49.260521 -3.889942 -3.842924 25.863375 14.874067 -2.124977 -1.667831 -2.807332 -10.816008 40.475914 4.277089 3.199903 4.399379 -4.377290 -4.485583 
-34.004501 52.178806 87.374199 -9.580078 -6.591797 -19.317528 49.020382 -12.934119 5.376555 -28.515625 8.173828 -3.650955 51.063168 8.107644 2.471410 -82.138672 -9.257812 -3.251954 2.000000 -2.000000 0.000000 -96.220703 41.953125 -1.419252 -88.156029 -0.003240 -2.793290 15.799848 28.610788 4.269300 -2.000000 2.000000 0.000000 70.224609 -15.048828 20.212311 110.097694 -0.895701 -3.148257 0.029811 -39.187290 3.616529 -5.709557 8.841678 3.079674 40.443146 -3.943895 -3.401725 31.073034 9.731375 -5.086258 -0.156986 -4.239125 -14.565335 34.842693 3.991466 2.920179 18.727234 -3.979801 -9.767588 
-34.740234 53.602661 87.816727 -9.736328 -5.917969 -18.711946 48.724468 -12.729467 3.558643 -28.320314 8.876953 -3.085937 51.063168 8.107644 2.471410 -81.523438 -9.843749 -3.253623 2.000000 -2.000000 0.000000 -98.447266 44.765625 -2.216797 -88.859421 0.025442 -2.804732 16.031883 27.891682 3.559653 -2.000000 2.000000 0.000000 68.515625 -14.482421 21.989746 113.245361 -1.201150 -2.941179 1.549315 -37.539734 2.653253 -0.957345 8.775669 4.932601 30.625919 -4.584165 -2.750984 36.730938 4.966362 -6.561361 2.995833 -6.355377 -19.893557 27.100206 4.555803 2.415687 30.730001 -1.383631 -16.670639 
-35.104164 54.521793 88.117332 -9.716796 -4.863281 -18.184423 48.671211 -11.744218 1.368775 -28.486328 9.404297 -2.568359 51.063168 8.107644 2.471410 -81.181641 -8.974608 -1.210938 2.000000 -2.000000 0.000000 -102.509766 47.197262 -5.693359 -89.580467 -0.313216 -3.078483 16.626215 26.602272 2.948867 -2.000000 2.000000 0.000000 67.128899 -14.306641 24.550781 114.826752 -1.280273 -2.926198 3.228299 -36.979366 1.668058 3.383927 8.283275 8.662439 21.451677 -4.943645 -2.035339 43.634804 3.168649 -3.459714 5.750344 -8.035957 -26.384800 19.681906 4.340006 1.697856 43.107941 -0.375714 -24.369492 
-35.429909 54.855190 88.195107 -9.882813 -4.003906 -17.265623 49.147194 -10.592600 -1.117808 -28.837893 9.589845 -1.933594 51.063168 8.107644 2.471410 -80.898438 -7.470702 1.776074 2.000000 -2.000000 0.000000 -104.853516 47.011719 -8.274107 -89.914650 0.073059 -2.827051 16.364393 25.963116 2.463915 -2.000000 2.000000 0.000000 66.669922 -14.492188 26.914064 114.299721 -1.250461 -2.934252 3.477007 -37.351616 2.662601 5.921349 8.245652 12.875509 17.208858 -5.107265 -1.715366 47.862289 1.207127 0.541049 6.627300 -9.450997 -28.705557 16.698864 4.494668 1.515768 51.596939 -1.252726 -27.881792 
-35.476776 54.523380 87.920624 -10.058594 -3.134766 -16.347654 49.912556 -9.410950 -3.596411 -29.365236 9.951173 -1.484375 51.063168 8.107644 2.471410 -80.673828 -6.093749 3.789063 2.000000 -2.000000 0.000000 -104.414063 44.482422 -10.058594 -89.409248 -0.312246 -2.892701 15.703699 26.304239 2.516347 -2.000000 2.000000 0.000000 67.099609 -16.074221 29.179686 111.839989 -1.150710 -2.967596 3.709394 -38.544186 4.049485 3.816048 7.877924 14.497799 19.874765 -4.941983 -1.904276 49.157188 0.297208 2.605855 4.208641 -10.772241 -25.792107 20.931854 4.376753 1.840025 48.203213 -2.400131 -24.050440 
-34.990646 53.696430 89.851494 -10.048828 -2.080078 -15.459339 50.756248 -8.784625 -5.708443 -30.253906 10.488281 -1.298828 51.063168 8.107644 2.471410 -80.917969 -5.283203 4.081132 2.000000 -2.000000 0.000000 -102.089844 40.830078 -10.862754 -88.345375 -0.167136 -2.920676 14.724584 27.002495 2.229246 -2.000000 2.000000 0.000000 68.183594 -18.583982 29.853518 108.160057 -0.806665 -2.996588 2.900227 -40.015099 5.770838 2.887760 6.499813 13.294533 26.222328 -4.768003 -2.408888 31.748987 1.153016 0.645393 -0.059782 -12.048616 -20.557838 29.737312 4.408911 2.449925 42.112537 -4.205963 -18.360699 
-34.320297 52.536209 92.643509 -10.048828 -1.220703 -14.404505 52.800945 -9.285500 -7.770521 -31.689451 11.025392 -1.570397 51.063168 8.107644 2.471410 -81.669922 -4.404296 3.359375 2.000000 -2.000000 0.000000 -97.402344 36.630859 -10.296908 -87.290405 -0.215318 -2.908103 13.630751 27.875971 2.147784 -2.000000 2.000000 0.000000 70.175781 -21.611326 27.818672 103.770973 -0.435229 -3.160814 0.679232 -42.215553 8.199897 4.147625 4.500460 10.361094 29.434998 -4.988936 -2.605009 9.763647 3.919485 -1.656404 -5.496799 -12.434157 -14.586314 39.380329 3.876505 3.254322 36.738354 -5.365295 -11.488232 
-33.713589 51.173519 93.564293 -10.048829 -0.537109 -13.281270 55.784653 -10.485288 -9.757071 -33.652344 11.923828 -2.197265 51.063168 8.107644 2.471410 -82.734375 -3.056640 1.835938 2.000000 -2.000000 0.000000 -92.031250 31.660156 -7.949218 -86.759270 -0.051421 -2.780716 12.560881 28.584923 2.226282 -2.000000 2.000000 0.000000 74.541016 -26.113279 19.536718 96.924255 -0.135254 -3.104401 -3.211020 -44.687683 10.212853 2.118057 2.898885 7.254882 35.571766 -4.839957 -3.125830 -2.394612 6.262868 -3.960562 -10.741839 -11.561822 -9.064461 48.342934 3.271159 3.801326 32.274555 -7.497842 -5.224758 
-33.220753 49.916447 94.445137 -10.048828 0.166016 -12.353486 58.594765 -11.421103 -11.700072 -35.449219 12.617188 -2.810367 51.063168 8.107644 2.471410 -83.476563 -1.914062 0.156250 2.000000 -2.000000 0.000000 -86.904297 26.367188 -4.839413 -87.128166 -0.398704 -3.034358 11.765746 28.721943 2.442751 -2.000000 2.000000 0.000000 81.103516 -30.820313 7.182496 88.673607 0.394029 -3.122766 -9.819522 -47.482285 14.079522 0.971118 1.135197 4.509167 39.607296 -4.622719 -3.563606 -12.634612 9.336742 -5.596791 -14.589446 -10.497759 -6.207509 55.546036 2.744116 4.012333 28.224745 -9.611837 -1.018776 
-32.886555 48.928410 95.328041 -9.853516 0.507813 -11.523335 59.992809 -11.276888 -13.012978 -36.357422 12.958985 -3.220466 51.063168 8.107644 2.471410 -83.574219 -1.298828 -0.761719 2.000000 -2.000000 0.000000 -83.779297 18.984375 2.578125 -89.580467 -0.313216 -3.078483 11.518318 28.211275 2.582473 -2.000000 2.000000 0.000000 86.640625 -35.458984 -1.298828 83.931511 0.421182 -2.915788 -13.295125 -48.802380 15.084978 0.755987 -0.291136 2.339335 41.403233 -4.537214 -3.729483 -21.044252 11.488572 -4.766906 -17.223902 -11.130825 -5.620678 60.812698 2.314306 4.218910 26.033222 -8.580084 -2.350829 
-32.661720 48.543438 95.890327 -9.853516 0.849609 -10.527343 59.777264 -9.784873 -14.053661 -36.357422 13.134767 -3.415749 51.063168 8.107644 2.471410 -82.656250 -0.957031 -0.878906 2.000000 -2.000000 0.000000 -83.388672 10.410156 12.324219 -93.629494 -0.335356 -3.292319 11.573618 26.991095 3.419492 -2.000000 2.000000 0.000000 87.861328 -40.839844 -1.835937 84.811241 0.393627 -2.946716 -13.208497 -49.240753 13.644893 0.960518 -1.096438 0.157377 41.923557 -4.546978 -3.768583 -24.368309 13.090339 -4.665628 -17.893984 -12.221199 -6.808625 62.717358 2.148366 4.085901 24.904623 -7.580437 -5.277416 
-32.727211 48.909618 95.973412 -9.677734 0.683594 -9.091681 58.834450 -7.708620 -15.219775 -35.820316 13.134766 -3.300781 51.063168 8.107644 2.471410 -80.673828 -0.693359 -0.478516 2.000000 -2.000000 0.000000 -83.769531 4.150391 18.408201 -97.493683 -0.182923 -3.193578 11.325353 25.777296 3.490929 -2.000000 2.000000 0.000000 86.083984 -47.509769 2.226563 88.856453 0.251901 -3.033139 -10.940703 -49.369183 9.806813 1.014838 -1.083122 -0.807211 41.386765 -4.003975 -3.596961 -21.665464 12.306991 -5.782452 -16.156673 -13.314326 -9.142323 60.646240 2.333793 4.217093 26.217127 -6.624626 -9.389997 
-33.134537 49.894344 95.533340 -9.326172 0.507813 -7.646386 57.499798 -5.245963 -16.093380 -35.097656 13.144531 -3.144531 51.063168 8.107644 2.471410 -78.759766 -0.898438 0.390472 2.000000 -2.000000 0.000000 -82.978516 1.054688 21.347898 -100.996521 0.145003 -3.104989 11.394095 24.899086 3.189301 -2.000000 2.000000 0.000000 81.650391 -53.476559 9.150391 93.233406 0.080359 -3.111522 -8.079954 -48.824444 5.911012 0.969447 0.261915 -0.924763 39.601490 -4.113150 -3.478339 -13.281212 9.655231 -6.133010 -12.808773 -13.314511 -11.400302 55.193584 2.773343 3.989976 29.116226 -5.559413 -12.810491 
-34.002071 51.205421 94.884033 -9.150390 0.000000 -6.162109 55.867012 -2.894009 -16.705620 -34.179691 13.154298 -2.929687 51.063168 8.107644 2.471410 -77.568359 -1.347656 1.406250 2.000000 -2.000000 0.000000 -81.103516 -0.761719 23.320313 -104.492012 0.818270 -3.134293 11.478915 24.235916 2.925573 -2.000000 2.000000 0.000000 76.552734 -57.763676 15.273438 96.926193 -0.053314 -3.168122 -5.825655 -48.028149 3.409688 1.774622 3.013351 1.061866 35.579597 -4.860113 -3.123021 -2.549307 5.022078 -3.054553 -7.868619 -12.034353 -13.327367 47.114979 3.359060 3.741488 32.471210 -5.027402 -8.431311 
-34.391350 52.549740 95.642906 -8.974609 -0.537109 -4.863380 54.632355 -1.204881 -16.754654 -33.281246 12.626954 -2.859193 51.063168 8.107644 2.471410 -77.988281 -1.923828 2.431641 2.000000 -2.000000 0.000000 -79.267578 -1.982422 24.228180 -107.667099 0.591782 -3.160165 11.507670 23.503757 2.645229 -2.000000 2.000000 0.000000 74.628906 -60.410156 17.960258 99.388222 -0.148555 -3.212727 -4.806117 -46.988029 3.126457 3.535073 5.468678 5.839442 29.224648 -4.643085 -2.629509 9.852477 0.952022 2.697339 -2.753881 -10.203639 -14.824880 37.282307 4.007439 3.002942 36.675514 -4.566106 -4.394446 
-34.773212 53.860573 96.363708 -8.798827 -0.878906 -3.935697 54.080212 -0.483201 -15.761766 -32.929691 12.099608 -3.115235 51.063168 8.107644 2.471410 -79.638672 -2.363281 2.998047 2.000000 -2.000000 0.000000 -77.968750 -2.753906 25.468281 -109.415382 0.659464 -3.173858 11.039260 22.971272 2.034128 -2.000000 2.000000 0.000000 76.533203 -61.455078 16.251186 101.317337 -0.401304 -3.070923 -4.012272 -45.627548 3.974359 2.194920 8.382915 11.091293 26.382050 -4.758873 -2.439358 31.324760 -0.952779 10.729136 2.431136 -8.037571 -16.466589 27.111267 4.546127 2.424072 40.917355 -3.861995 -0.661525 
-35.234230 54.586029 97.168182 -8.798827 -1.396484 -3.506112 54.196152 -0.489624 -13.540788 -32.763672 11.044923 -3.369140 51.063168 8.107644 2.471410 -80.937500 -2.978515 1.728516 2.000000 -2.000000 0.000000 -78.037109 -3.300781 27.558594 -109.765686 0.856704 -3.146154 9.449299 22.272013 1.261249 -2.000000 2.000000 0.000000 80.576172 -59.658207 11.993526 101.844673 -0.430552 -3.072615 -3.494325 -44.903282 4.708231 2.675067 9.902645 15.107728 21.810938 -4.950853 -2.066738 47.520004 0.742321 16.740202 6.727210 -6.328013 -19.016617 18.986279 4.447962 1.689275 42.847546 -4.287798 -1.005373 
